<svg xmlns="http://www.w3.org/2000/svg" version="1.1" xmlns:xlink="http://www.w3.org/1999/xlink" xmlns:svgjs="http://svgjs.dev/svgjs" width="1000" height="1000" viewBox="0 0 1000 1000"><rect width="1000" height="1000" fill="#046380"></rect><g transform="matrix(0.7,0,0,0.7,149.57575757575756,282.1265587044535)"><svg viewBox="0 0 396 247" data-background-color="#046380" preserveAspectRatio="xMidYMid meet" height="623" width="1000" xmlns="http://www.w3.org/2000/svg" xmlns:xlink="http://www.w3.org/1999/xlink"><g id="tight-bounds" transform="matrix(1,0,0,1,0.2400000000000091,-0.09999999999999432)"><svg viewBox="0 0 395.52 247.2" height="247.2" width="395.52"><g><svg></svg></g><g><svg viewBox="0 0 395.52 247.2" height="247.2" width="395.52"><g transform="matrix(1,0,0,1,75.54432,68.8376854025143)"><svg viewBox="0 0 244.43135999999998 109.52462919497141" height="109.52462919497141" width="244.43135999999998"><g><svg viewBox="0 0 244.43135999999998 109.52462919497141" height="109.52462919497141" width="244.43135999999998"><g><svg viewBox="0 0 244.43135999999998 109.52462919497141" height="109.52462919497141" width="244.43135999999998"><g><svg viewBox="0 0 244.43135999999998 109.52462919497141" height="109.52462919497141" width="244.43135999999998"><g id="textblocktransform"><svg viewBox="0 0 244.43135999999998 109.52462919497141" height="109.52462919497141" width="244.43135999999998" id="textblock"><g><svg viewBox="0 0 244.43135999999998 62.09146720321931" height="62.09146720321931" width="244.43135999999998"><g transform="matrix(1,0,0,1,0,0)"><svg width="244.43135999999998" viewBox="3 -40.5 198.78 50.5" height="62.09146720321931" data-palette-color="#ffffff"><path d="M13.35 0L3 0 3-40.5 13.25-40.5Q18.55-40.5 21.5-39.18 24.45-37.85 25.65-35.02 26.85-32.2 26.85-27.7L26.85-27.7 26.85-13Q26.85-8.45 25.65-5.58 24.45-2.7 21.53-1.35 18.6 0 13.35 0L13.35 0ZM11.95-34.25L11.95-6.2 13.35-6.2Q15.4-6.2 16.3-6.8 17.2-7.4 17.43-8.6 17.65-9.8 17.65-11.6L17.65-11.6 17.65-29.25Q17.65-31.05 17.38-32.15 17.1-33.25 16.2-33.75 15.3-34.25 13.3-34.25L13.3-34.25 11.95-34.25ZM40.1 0L31.95 0 31.95-28.9 40.1-28.9 40.1-24.1Q41.5-26.6 42.9-27.93 44.3-29.25 46.3-29.25L46.3-29.25Q46.7-29.25 47-29.23 47.3-29.2 47.55-29.1L47.55-29.1 47.55-21Q47-21.25 46.32-21.43 45.65-21.6 44.9-21.6L44.9-21.6Q43.5-21.6 42.3-20.85 41.1-20.1 40.1-18.8L40.1-18.8 40.1 0ZM60.45 0.5L60.45 0.5Q57.3 0.5 55.05-0.63 52.8-1.75 51.6-3.93 50.4-6.1 50.4-9.15L50.4-9.15 50.4-19.75Q50.4-22.85 51.6-25 52.8-27.15 55.07-28.28 57.35-29.4 60.45-29.4L60.45-29.4Q63.65-29.4 65.77-28.3 67.9-27.2 68.97-25.05 70.05-22.9 70.05-19.75L70.05-19.75 70.05-13.95 58.45-13.95 58.45-8.4Q58.45-7.3 58.7-6.6 58.95-5.9 59.4-5.6 59.85-5.3 60.45-5.3L60.45-5.3Q61.05-5.3 61.52-5.58 62-5.85 62.27-6.45 62.55-7.05 62.55-8.1L62.55-8.1 62.55-11.15 70.05-11.15 70.05-8.35Q70.05-3.95 67.5-1.73 64.95 0.5 60.45 0.5ZM58.45-20.2L58.45-17.75 62.55-17.75 62.55-20.65Q62.55-21.8 62.27-22.45 62-23.1 61.52-23.35 61.05-23.6 60.4-23.6L60.4-23.6Q59.8-23.6 59.37-23.3 58.95-23 58.7-22.28 58.45-21.55 58.45-20.2L58.45-20.2ZM80.44 0.5L80.44 0.5Q78.24 0.5 76.74-0.55 75.24-1.6 74.49-3.23 73.74-4.85 73.74-6.55L73.74-6.55Q73.74-9.25 74.82-11.1 75.89-12.95 77.64-14.2 79.39-15.45 81.49-16.32 83.59-17.2 85.64-17.9L85.64-17.9 85.64-20.8Q85.64-21.55 85.49-22.13 85.34-22.7 84.99-23.03 84.64-23.35 83.94-23.35L83.94-23.35Q83.24-23.35 82.87-23.05 82.49-22.75 82.34-22.23 82.19-21.7 82.14-21.05L82.14-21.05 81.94-18.95 74.34-19.25Q74.59-24.45 77.12-26.93 79.64-29.4 84.69-29.4L84.69-29.4Q89.09-29.4 91.27-26.98 93.44-24.55 93.44-20.7L93.44-20.7 93.44-7.2Q93.44-5.4 93.52-4.05 93.59-2.7 93.72-1.7 93.84-0.7 93.94 0L93.94 0 86.64 0Q86.49-1.15 86.29-2.5 86.09-3.85 85.99-4.1L85.99-4.1Q85.49-2.3 84.12-0.9 82.74 0.5 80.44 0.5ZM83.34-5L83.34-5Q83.84-5 84.27-5.2 84.69-5.4 85.04-5.75 85.39-6.1 85.64-6.45L85.64-6.45 85.64-14.35Q84.64-13.75 83.79-13.13 82.94-12.5 82.34-11.75 81.74-11 81.42-10.13 81.09-9.25 81.09-8.15L81.09-8.15Q81.09-6.7 81.69-5.85 82.29-5 83.34-5ZM106.29 0L98.29 0 98.29-28.9 106.29-28.9 106.29-26.6Q107.89-28.15 109.62-28.8 111.34-29.45 113.14-29.45L113.14-29.45Q114.89-29.45 116.17-28.58 117.44-27.7 118.09-26L118.09-26Q119.79-27.9 121.67-28.68 123.54-29.45 125.44-29.45L125.44-29.45Q127.14-29.45 128.39-28.63 129.64-27.8 130.34-26.23 131.04-24.65 131.04-22.45L131.04-22.45 131.04 0 123.04 0 123.04-21.6Q123.04-22.8 122.62-23.33 122.19-23.85 121.34-23.85L121.34-23.85Q120.84-23.85 120.09-23.58 119.34-23.3 118.64-22.8L118.64-22.8Q118.64-22.7 118.64-22.63 118.64-22.55 118.64-22.45L118.64-22.45 118.64 0 110.74 0 110.74-21.6Q110.74-22.8 110.29-23.33 109.84-23.85 108.99-23.85L108.99-23.85Q108.44-23.85 107.72-23.58 106.99-23.3 106.29-22.8L106.29-22.8 106.29 0ZM148.84 0L136.39 0 136.39-40.5 146.94-40.5Q149.54-40.5 151.86-40.1 154.19-39.7 155.99-38.58 157.79-37.45 158.81-35.38 159.84-33.3 159.84-29.9L159.84-29.9Q159.84-27.45 159.11-25.78 158.39-24.1 157.06-23.1 155.74-22.1 153.89-21.75L153.89-21.75Q156.24-21.45 157.84-20.23 159.44-19 160.26-16.95 161.09-14.9 161.09-12L161.09-12Q161.09-8.85 160.26-6.58 159.44-4.3 157.89-2.85 156.34-1.4 154.06-0.7 151.79 0 148.84 0L148.84 0ZM145.34-18.4L145.34-6.25 147.24-6.25Q150.19-6.25 151.31-7.75 152.44-9.25 152.44-12.15L152.44-12.15Q152.44-14.45 151.94-15.8 151.44-17.15 150.29-17.78 149.14-18.4 147.19-18.4L147.19-18.4 145.34-18.4ZM145.34-34.5L145.34-24.3 147.09-24.3Q149.14-24.3 150.19-24.93 151.24-25.55 151.61-26.75 151.99-27.95 151.99-29.65L151.99-29.65Q151.99-31.25 151.41-32.33 150.84-33.4 149.71-33.95 148.59-34.5 146.89-34.5L146.89-34.5 145.34-34.5ZM173.54 0L165.39 0 165.39-28.9 173.54-28.9 173.54 0ZM173.54-33.8L165.34-33.8 165.34-39.45 173.54-39.45 173.54-33.8ZM187.98 10L187.98 10Q184.73 10 182.33 9.35 179.93 8.7 178.61 7.4 177.28 6.1 177.28 4.1L177.28 4.1Q177.28 2.75 177.86 1.68 178.43 0.6 179.46-0.23 180.48-1.05 181.78-1.65L181.78-1.65Q179.88-2.2 178.83-3.3 177.78-4.4 177.78-6.25L177.78-6.25Q177.78-8 178.63-9.28 179.48-10.55 180.98-11.85L180.98-11.85Q179.58-13.1 178.86-14.93 178.13-16.75 178.13-19.35L178.13-19.35Q178.13-22.6 179.33-24.85 180.53-27.1 182.86-28.25 185.18-29.4 188.48-29.4L188.48-29.4Q190.73-29.4 192.43-28.85 194.13-28.3 195.33-27.15L195.33-27.15Q195.88-28 196.78-28.8 197.68-29.6 198.83-30.15L198.83-30.15 199.88-30.65 201.78-26.75Q201.33-26.6 200.53-26.25 199.73-25.9 198.86-25.5 197.98-25.1 197.28-24.7L197.28-24.7Q197.83-23.6 198.13-22.2 198.43-20.8 198.43-19.3L198.43-19.3Q198.43-16.2 197.31-13.95 196.18-11.7 193.98-10.53 191.78-9.35 188.48-9.35L188.48-9.35Q187.08-9.35 185.83-9.58 184.58-9.8 183.53-10.15L183.53-10.15Q183.23-9.75 183.01-9.33 182.78-8.9 182.78-8.4L182.78-8.4Q182.78-7.8 183.38-7.45 183.98-7.1 185.53-6.9L185.53-6.9 193.13-6.05Q196.83-5.65 198.58-3.68 200.33-1.7 200.33 1.5L200.33 1.5Q200.33 4.25 199.11 6.15 197.88 8.05 195.16 9.03 192.43 10 187.98 10ZM189.03 4.1L189.03 4.1Q191.78 4.1 193.26 3.65 194.73 3.2 194.73 1.8L194.73 1.8Q194.73 1.1 194.33 0.68 193.93 0.25 193.01-0.03 192.08-0.3 190.38-0.45L190.38-0.45 185.03-1Q184.53-0.65 184.16-0.23 183.78 0.2 183.56 0.68 183.33 1.15 183.33 1.7L183.33 1.7Q183.33 2.9 184.63 3.5 185.93 4.1 189.03 4.1ZM188.48-14.2L188.48-14.2Q189.18-14.2 189.63-14.48 190.08-14.75 190.31-15.35 190.53-15.95 190.63-16.95 190.73-17.95 190.73-19.35L190.73-19.35Q190.73-20.8 190.63-21.78 190.53-22.75 190.31-23.38 190.08-24 189.63-24.28 189.18-24.55 188.48-24.55L188.48-24.55Q187.78-24.55 187.33-24.28 186.88-24 186.66-23.4 186.43-22.8 186.33-21.8 186.23-20.8 186.23-19.35L186.23-19.35Q186.23-17.95 186.33-16.98 186.43-16 186.66-15.38 186.88-14.75 187.33-14.48 187.78-14.2 188.48-14.2Z" opacity="1" transform="matrix(1,0,0,1,0,0)" fill="#ffffff" class="undefined-text-0" data-fill-palette-color="primary" id="text-0"></path></svg></g></svg></g><g transform="matrix(1,0,0,1,0,71.15210246338188)"><svg viewBox="0 0 244.43135999999998 38.37252673158953" height="38.37252673158953" width="244.43135999999998"><g transform="matrix(1,0,0,1,0,0)"><svg width="244.43135999999998" viewBox="5.7 -35.3 226.77 35.599999999999994" height="38.37252673158953" data-palette-color="#ffffff"><path d="M31.3-35L34.95-35 34.95 0 31.9 0 9.4-28.4 9.4 0 5.7 0 5.7-35 8.75-35 31.3-6.6 31.3-35ZM127.91-5.7L127.91-17.5 131.46-17.5 131.46-4.15Q129.01-2 125.66-0.85 122.31 0.3 118.61 0.3L118.61 0.3Q113.36 0.3 109.16-2 104.96-4.3 102.56-8.38 100.16-12.45 100.16-17.5L100.16-17.5Q100.16-22.55 102.56-26.63 104.96-30.7 109.16-33 113.36-35.3 118.66-35.3L118.66-35.3Q122.66-35.3 126.01-34.02 129.36-32.75 131.66-30.25L131.66-30.25 129.36-27.9Q125.21-32 118.81-32L118.81-32Q114.56-32 111.14-30.13 107.71-28.25 105.76-24.93 103.81-21.6 103.81-17.5L103.81-17.5Q103.81-13.4 105.76-10.1 107.71-6.8 111.11-4.9 114.51-3 118.76-3L118.76-3Q124.16-3 127.91-5.7L127.91-5.7ZM214.12 0.3Q208.92 0.3 204.7-2.02 200.47-4.35 198.1-8.4 195.72-12.45 195.72-17.5L195.72-17.5Q195.72-22.55 198.1-26.6 200.47-30.65 204.7-32.98 208.92-35.3 214.12-35.3L214.12-35.3Q219.32-35.3 223.5-33 227.67-30.7 230.07-26.63 232.47-22.55 232.47-17.5L232.47-17.5Q232.47-12.45 230.07-8.38 227.67-4.3 223.5-2 219.32 0.3 214.12 0.3L214.12 0.3ZM214.12-3Q218.27-3 221.62-4.88 224.97-6.75 226.87-10.08 228.77-13.4 228.77-17.5L228.77-17.5Q228.77-21.6 226.87-24.93 224.97-28.25 221.62-30.13 218.27-32 214.12-32L214.12-32Q209.97-32 206.6-30.13 203.22-28.25 201.3-24.93 199.37-21.6 199.37-17.5L199.37-17.5Q199.37-13.4 201.3-10.08 203.22-6.75 206.6-4.88 209.97-3 214.12-3L214.12-3Z" opacity="1" transform="matrix(1,0,0,1,0,0)" fill="#ffffff" class="undefined-text-1" data-fill-palette-color="secondary" id="text-1"></path></svg></g></svg></g></svg></g></svg></g></svg></g></svg></g></svg></g><g><path d="M245.816 0c68.262 0 123.6 55.338 123.6 123.6 0 68.262-55.338 123.6-123.6 123.6-46.777 0-87.485-25.985-108.477-64.307h1.978c20.828 37.33 60.715 62.577 106.499 62.576 67.307 0 121.869-54.563 121.869-121.869 0-67.307-54.563-121.869-121.869-121.869-45.783 0-85.67 25.246-106.499 62.576l-1.978 0c20.991-38.322 61.699-64.307 108.477-64.307z" fill="#ffffff" stroke="transparent" data-fill-palette-color="tertiary"></path></g></svg></g><defs></defs></svg><rect width="395.52" height="247.2" fill="none" stroke="none" visibility="hidden"></rect></g></svg></g></svg>